<svg width="621" height="48" viewBox="0 0 621 48" fill="none" xmlns="http://www.w3.org/2000/svg">
  <path
    d="M0.312 47V1.752H31.352V7.96H7.096V23.128H28.024V29.4H7.096V47H0.312ZM125 47V1.752H134.664L147.784 25.624L160.648 1.752H170.056V47H163.336V9.752L149.064 35.736H146.12L131.784 9.752V47H125Z"
    fill="#96FFB3" />
  <path
    d="M37.4695 47V13.272H44.0615V47H37.4695ZM40.7335 8.792C39.4535 8.792 38.4082 8.408 37.5975 7.64C36.8295 6.82933 36.4455 5.80533 36.4455 4.568C36.4455 3.33066 36.8508 2.328 37.6615 1.56C38.4722 0.749331 39.4962 0.343998 40.7335 0.343998C41.8855 0.343998 42.8882 0.749331 43.7415 1.56C44.6375 2.328 45.0855 3.33066 45.0855 4.568C45.0855 5.80533 44.6588 6.82933 43.8055 7.64C42.9948 8.408 41.9708 8.792 40.7335 8.792ZM61.1155 47L48.5075 13.272H55.8675L65.5955 41.048L75.2595 13.272H82.6835L70.0755 47H61.1155ZM101.818 47.384C98.2762 47.384 95.3108 46.6587 92.9215 45.208C90.5322 43.7573 88.7188 41.752 87.4815 39.192C86.2868 36.5893 85.6895 33.6027 85.6895 30.232C85.6895 26.8187 86.3082 23.8107 87.5455 21.208C88.8255 18.6053 90.6602 16.5573 93.0495 15.064C95.4815 13.5707 98.4042 12.824 101.818 12.824C104.42 12.824 106.682 13.3147 108.602 14.296C110.522 15.2347 112.1 16.5147 113.338 18.136C114.618 19.7573 115.556 21.5707 116.154 23.576C116.751 25.5387 117.007 27.5867 116.922 29.72C116.922 30.1893 116.9 30.6373 116.858 31.064C116.815 31.4907 116.772 31.9387 116.729 32.408H92.3455C92.4735 34.1147 92.9002 35.672 93.6255 37.08C94.3935 38.488 95.4602 39.6187 96.8255 40.472C98.1908 41.2827 99.8762 41.688 101.882 41.688C102.991 41.688 104.058 41.56 105.082 41.304C106.148 41.0053 107.087 40.5573 107.898 39.96C108.751 39.32 109.348 38.5093 109.69 37.528H116.346C115.791 39.7893 114.788 41.6667 113.338 43.16C111.93 44.6107 110.202 45.6773 108.154 46.36C106.148 47.0427 104.036 47.384 101.818 47.384ZM92.4735 27.16H110.394C110.351 25.496 109.967 24.024 109.242 22.744C108.516 21.4213 107.514 20.3973 106.234 19.672C104.954 18.904 103.418 18.52 101.626 18.52C99.6628 18.52 98.0202 18.9253 96.6975 19.736C95.4175 20.5467 94.4148 21.6133 93.6895 22.936C93.0068 24.216 92.6015 25.624 92.4735 27.16Z"
    fill="#828282" />
  <path
    d="M198.25 47V1.752H214.634C219.37 1.752 223.338 2.69066 226.538 4.568C229.78 6.40267 232.212 9.02667 233.834 12.44C235.498 15.8107 236.33 19.8 236.33 24.408C236.33 29.016 235.519 33.0053 233.898 36.376C232.276 39.7467 229.844 42.3707 226.602 44.248C223.402 46.0827 219.434 47 214.698 47H198.25ZM205.034 40.792H214.378C217.876 40.792 220.735 40.1093 222.954 38.744C225.172 37.336 226.815 35.416 227.882 32.984C228.948 30.5093 229.482 27.6507 229.482 24.408C229.482 21.2507 228.948 18.4347 227.882 15.96C226.858 13.4853 225.236 11.544 223.018 10.136C220.842 8.68533 218.026 7.96 214.57 7.96H205.034V40.792ZM243.22 47V13.272H249.812V47H243.22ZM246.484 8.792C245.204 8.792 244.158 8.408 243.348 7.64C242.58 6.82933 242.196 5.80533 242.196 4.568C242.196 3.33066 242.601 2.328 243.411 1.56C244.222 0.749331 245.246 0.343998 246.484 0.343998C247.636 0.343998 248.638 0.749331 249.492 1.56C250.388 2.328 250.836 3.33066 250.836 4.568C250.836 5.80533 250.409 6.82933 249.556 7.64C248.745 8.408 247.721 8.792 246.484 8.792ZM270.578 47.384C268.999 47.384 267.42 47.2347 265.842 46.936C264.263 46.6373 262.791 46.104 261.426 45.336C260.06 44.568 258.908 43.544 257.97 42.264C257.031 40.9413 256.434 39.32 256.178 37.4H262.898C263.239 38.424 263.836 39.256 264.69 39.896C265.586 40.536 266.567 41.0053 267.634 41.304C268.743 41.6027 269.831 41.752 270.898 41.752C271.538 41.752 272.242 41.7093 273.01 41.624C273.82 41.5387 274.588 41.3467 275.314 41.048C276.039 40.7493 276.636 40.3227 277.106 39.768C277.575 39.1707 277.81 38.3813 277.81 37.4C277.81 36.632 277.596 35.992 277.17 35.48C276.786 34.968 276.231 34.5627 275.506 34.264C274.823 33.9227 273.991 33.6667 273.01 33.496C271.09 33.0693 269.02 32.664 266.802 32.28C264.626 31.8533 262.706 31.128 261.042 30.104C260.444 29.72 259.911 29.2933 259.442 28.824C258.972 28.312 258.567 27.736 258.226 27.096C257.884 26.456 257.628 25.7733 257.458 25.048C257.287 24.3227 257.202 23.5333 257.202 22.68C257.202 20.9307 257.543 19.4373 258.226 18.2C258.951 16.9627 259.932 15.96 261.17 15.192C262.407 14.3813 263.815 13.784 265.394 13.4C266.972 13.016 268.636 12.824 270.385 12.824C272.647 12.824 274.695 13.1867 276.53 13.912C278.364 14.6373 279.879 15.704 281.074 17.112C282.268 18.52 282.972 20.2907 283.186 22.424H276.978C276.722 21.272 275.975 20.3547 274.738 19.672C273.543 18.9467 272.028 18.584 270.194 18.584C269.554 18.584 268.85 18.6267 268.082 18.712C267.356 18.7973 266.652 18.9893 265.97 19.288C265.287 19.5867 264.732 20.0133 264.306 20.568C263.879 21.08 263.666 21.7627 263.666 22.616C263.666 23.4267 263.858 24.1093 264.242 24.664C264.668 25.2187 265.266 25.6667 266.034 26.008C266.844 26.3493 267.762 26.6267 268.786 26.84C270.236 27.1813 271.794 27.5013 273.458 27.8C275.164 28.0987 276.551 28.4187 277.618 28.76C279.026 29.144 280.22 29.6987 281.202 30.424C282.226 31.1493 282.994 32.0667 283.506 33.176C284.06 34.2853 284.338 35.6293 284.338 37.208C284.338 39.256 283.932 40.9413 283.122 42.264C282.311 43.544 281.223 44.568 279.858 45.336C278.535 46.104 277.042 46.6373 275.378 46.936C273.756 47.2347 272.156 47.384 270.578 47.384ZM305.876 47.384C302.334 47.384 299.369 46.6587 296.98 45.208C294.633 43.7573 292.862 41.752 291.668 39.192C290.516 36.5893 289.94 33.6027 289.94 30.232C289.94 26.904 290.537 23.9387 291.732 21.336C292.969 18.6907 294.804 16.6213 297.236 15.128C299.71 13.592 302.761 12.824 306.388 12.824C308.862 12.824 311.06 13.2507 312.98 14.104C314.9 14.9147 316.457 16.1307 317.652 17.752C318.889 19.3307 319.699 21.3147 320.083 23.704H313.492C312.937 21.9547 311.998 20.696 310.676 19.928C309.396 19.16 307.881 18.776 306.132 18.776C303.785 18.776 301.908 19.3307 300.5 20.44C299.134 21.5493 298.132 22.9787 297.492 24.728C296.852 26.4773 296.532 28.312 296.532 30.232C296.532 32.2373 296.852 34.0933 297.492 35.8C298.174 37.5067 299.198 38.8933 300.564 39.96C301.972 40.984 303.806 41.496 306.068 41.496C307.774 41.496 309.353 41.1333 310.804 40.408C312.254 39.64 313.193 38.36 313.62 36.568H320.404C320.02 39.0427 319.124 41.0907 317.716 42.712C316.308 44.2907 314.558 45.464 312.468 46.232C310.42 47 308.222 47.384 305.876 47.384ZM341.822 47.384C338.323 47.384 335.358 46.68 332.926 45.272C330.494 43.8213 328.638 41.7947 327.358 39.192C326.121 36.5893 325.502 33.5813 325.502 30.168C325.502 26.712 326.142 23.704 327.422 21.144C328.702 18.5413 330.558 16.5147 332.99 15.064C335.422 13.5707 338.387 12.824 341.886 12.824C345.385 12.824 348.35 13.5707 350.782 15.064C353.214 16.5147 355.049 18.5413 356.286 21.144C357.523 23.7467 358.142 26.776 358.142 30.232C358.142 33.6027 357.502 36.5893 356.222 39.192C354.985 41.7947 353.15 43.8213 350.718 45.272C348.329 46.68 345.363 47.384 341.822 47.384ZM341.822 41.496C344.126 41.496 345.982 40.984 347.39 39.96C348.841 38.936 349.907 37.5707 350.59 35.864C351.273 34.1147 351.614 32.216 351.614 30.168C351.614 28.12 351.273 26.2427 350.59 24.536C349.907 22.8293 348.841 21.464 347.39 20.44C345.982 19.3733 344.126 18.84 341.822 18.84C339.561 18.84 337.705 19.3733 336.254 20.44C334.803 21.464 333.737 22.8293 333.054 24.536C332.414 26.2427 332.094 28.12 332.094 30.168C332.094 32.2587 332.414 34.1573 333.054 35.864C333.737 37.5707 334.803 38.936 336.254 39.96C337.705 40.984 339.561 41.496 341.822 41.496ZM364.907 47V13.272H371.115L371.435 18.136C372.288 16.8133 373.27 15.768 374.379 15C375.488 14.232 376.704 13.6773 378.027 13.336C379.35 12.9947 380.736 12.824 382.187 12.824C382.571 12.824 382.934 12.824 383.275 12.824C383.616 12.824 383.936 12.824 384.235 12.824V19.16H382.187C379.755 19.16 377.728 19.6507 376.107 20.632C374.528 21.6133 373.355 22.9787 372.587 24.728C371.862 26.4773 371.499 28.4827 371.499 30.744V47H364.907ZM402.227 47.384C398.856 47.384 396.061 46.6373 393.843 45.144C391.667 43.608 390.024 41.5387 388.915 38.936C387.848 36.3333 387.315 33.4107 387.315 30.168C387.315 26.8827 387.869 23.9387 388.979 21.336C390.088 18.6907 391.773 16.6213 394.035 15.128C396.296 13.592 399.155 12.824 402.611 12.824C403.891 12.824 405.171 12.9733 406.451 13.272C407.773 13.5707 408.989 14.04 410.099 14.68C411.251 15.2773 412.232 16.088 413.043 17.112V1.752H419.635V47H413.299L413.043 42.392C412.275 43.544 411.315 44.504 410.163 45.272C409.053 45.9973 407.816 46.5307 406.451 46.872C405.085 47.2133 403.677 47.384 402.227 47.384ZM403.315 41.496C405.491 41.496 407.283 40.9627 408.691 39.896C410.141 38.8293 411.229 37.4213 411.955 35.672C412.68 33.9227 413.043 32.024 413.043 29.976C413.043 27.8853 412.68 26.008 411.955 24.344C411.272 22.6373 410.205 21.2933 408.755 20.312C407.347 19.288 405.533 18.776 403.315 18.776C401.011 18.776 399.176 19.3093 397.811 20.376C396.445 21.4 395.443 22.7867 394.803 24.536C394.205 26.2853 393.907 28.2053 393.907 30.296C393.907 31.832 394.077 33.2827 394.419 34.648C394.76 35.9707 395.293 37.1653 396.019 38.232C396.787 39.256 397.768 40.0667 398.963 40.664C400.157 41.2187 401.608 41.496 403.315 41.496ZM445.576 47.512C442.632 47.512 439.858 47.0853 437.256 46.232C434.653 45.3787 432.456 43.992 430.664 42.072C428.872 40.152 427.677 37.6133 427.08 34.456H434.056C434.61 36.248 435.506 37.656 436.744 38.68C437.981 39.6613 439.41 40.344 441.032 40.728C442.696 41.112 444.36 41.304 446.024 41.304C447.602 41.304 449.074 41.0907 450.44 40.664C451.848 40.2373 453 39.5333 453.896 38.552C454.792 37.5707 455.24 36.2907 455.24 34.712C455.24 33.5173 455.005 32.536 454.536 31.768C454.066 31 453.405 30.3813 452.552 29.912C451.741 29.4 450.76 28.9947 449.608 28.696C448.285 28.2693 446.856 27.9067 445.32 27.608C443.826 27.3093 442.333 26.968 440.84 26.584C439.389 26.2 438.024 25.7093 436.744 25.112C435.677 24.6853 434.632 24.1733 433.608 23.576C432.626 22.936 431.773 22.1893 431.048 21.336C430.322 20.44 429.725 19.3947 429.256 18.2C428.829 17.0053 428.616 15.64 428.616 14.104C428.616 12.056 428.936 10.3067 429.576 8.856C430.258 7.40533 431.133 6.18933 432.2 5.208C433.309 4.22666 434.568 3.45866 435.976 2.904C437.426 2.30667 438.941 1.88 440.52 1.624C442.098 1.368 443.634 1.24 445.128 1.24C447.858 1.24 450.376 1.66666 452.68 2.52C454.984 3.37333 456.882 4.73867 458.376 6.616C459.912 8.45067 460.744 10.8827 460.872 13.912H454.28C454.109 12.2907 453.554 11.0107 452.616 10.072C451.72 9.09067 450.589 8.408 449.224 8.024C447.858 7.59733 446.408 7.384 444.872 7.384C443.762 7.384 442.653 7.49067 441.544 7.704C440.434 7.87467 439.41 8.216 438.472 8.728C437.576 9.19733 436.85 9.83733 436.296 10.648C435.784 11.4587 435.528 12.4613 435.528 13.656C435.528 14.68 435.741 15.5973 436.168 16.408C436.594 17.176 437.192 17.8373 437.96 18.392C438.77 18.904 439.666 19.352 440.648 19.736C442.44 20.4187 444.402 20.952 446.536 21.336C448.669 21.6773 450.674 22.168 452.552 22.808C453.917 23.2347 455.197 23.768 456.392 24.408C457.586 25.0053 458.61 25.752 459.464 26.648C460.317 27.5013 460.978 28.5253 461.448 29.72C461.917 30.872 462.152 32.216 462.152 33.752C462.152 36.2693 461.704 38.424 460.808 40.216C459.912 41.9653 458.696 43.3733 457.16 44.44C455.624 45.5067 453.853 46.296 451.848 46.808C449.842 47.2773 447.752 47.512 445.576 47.512ZM482.713 47.384C479.086 47.384 476.484 46.4027 474.905 44.44C473.369 42.4347 472.601 39.64 472.601 36.056V19.16H467.225V13.272H472.601V3.48H479.193V13.272H489.497V19.16H479.193V34.968C479.193 36.1627 479.3 37.2507 479.513 38.232C479.769 39.2133 480.238 39.9813 480.921 40.536C481.604 41.0907 482.585 41.3893 483.865 41.432C484.846 41.432 485.7 41.2613 486.425 40.92C487.193 40.5787 487.812 40.1947 488.281 39.768L490.841 44.696C490.03 45.336 489.177 45.8693 488.281 46.296C487.428 46.68 486.532 46.9573 485.593 47.128C484.654 47.2987 483.694 47.384 482.713 47.384ZM506.347 47.384C504.811 47.384 503.317 47.192 501.867 46.808C500.459 46.3813 499.2 45.7627 498.091 44.952C496.981 44.0987 496.085 43.0533 495.403 41.816C494.763 40.536 494.443 39.0427 494.443 37.336C494.443 35.288 494.827 33.6027 495.595 32.28C496.405 30.9147 497.472 29.8693 498.795 29.144C500.117 28.376 501.632 27.8427 503.339 27.544C505.088 27.2027 506.901 27.032 508.779 27.032H517.035C517.035 25.368 516.779 23.9173 516.267 22.68C515.755 21.4 514.944 20.4187 513.835 19.736C512.768 19.0107 511.339 18.648 509.547 18.648C508.48 18.648 507.456 18.776 506.475 19.032C505.536 19.2453 504.725 19.608 504.043 20.12C503.36 20.632 502.891 21.3147 502.635 22.168H495.723C495.979 20.5467 496.555 19.16 497.451 18.008C498.347 16.8133 499.456 15.832 500.779 15.064C502.101 14.296 503.509 13.7413 505.003 13.4C506.539 13.016 508.096 12.824 509.675 12.824C514.539 12.824 518.037 14.2533 520.171 17.112C522.347 19.928 523.435 23.8107 523.435 28.76V47H517.739L517.483 42.712C516.501 44.0347 515.328 45.0373 513.963 45.72C512.64 46.4027 511.317 46.8507 509.995 47.064C508.672 47.2773 507.456 47.384 506.347 47.384ZM507.371 41.816C509.291 41.816 510.976 41.496 512.427 40.856C513.877 40.1733 515.008 39.2133 515.819 37.976C516.629 36.696 517.035 35.2027 517.035 33.496V32.088H511.019C509.781 32.088 508.565 32.1307 507.371 32.216C506.219 32.2587 505.152 32.4293 504.171 32.728C503.232 32.984 502.464 33.432 501.867 34.072C501.312 34.712 501.035 35.6293 501.035 36.824C501.035 37.976 501.333 38.9147 501.931 39.64C502.528 40.3653 503.317 40.92 504.299 41.304C505.28 41.6453 506.304 41.816 507.371 41.816ZM544.401 47.384C540.774 47.384 538.171 46.4027 536.593 44.44C535.057 42.4347 534.289 39.64 534.289 36.056V19.16H528.913V13.272H534.289V3.48H540.881V13.272H551.185V19.16H540.881V34.968C540.881 36.1627 540.987 37.2507 541.201 38.232C541.457 39.2133 541.926 39.9813 542.609 40.536C543.291 41.0907 544.273 41.3893 545.553 41.432C546.534 41.432 547.387 41.2613 548.113 40.92C548.881 40.5787 549.499 40.1947 549.969 39.768L552.529 44.696C551.718 45.336 550.865 45.8693 549.969 46.296C549.115 46.68 548.219 46.9573 547.281 47.128C546.342 47.2987 545.382 47.384 544.401 47.384ZM571.746 47.384C567.01 47.384 563.383 46.1467 560.866 43.672C558.391 41.1547 557.154 37.336 557.154 32.216V13.272H563.746V31.832C563.746 33.8373 564.023 35.5653 564.578 37.016C565.175 38.4667 566.071 39.576 567.266 40.344C568.461 41.112 569.975 41.496 571.81 41.496C573.73 41.496 575.266 41.112 576.418 40.344C577.613 39.5333 578.466 38.4027 578.978 36.952C579.533 35.5013 579.81 33.7947 579.81 31.832V13.272H586.402V32.216C586.402 37.4213 585.122 41.2613 582.562 43.736C580.045 46.168 576.439 47.384 571.746 47.384ZM606.953 47.384C605.374 47.384 603.795 47.2347 602.217 46.936C600.638 46.6373 599.166 46.104 597.801 45.336C596.435 44.568 595.283 43.544 594.345 42.264C593.406 40.9413 592.809 39.32 592.553 37.4H599.273C599.614 38.424 600.211 39.256 601.065 39.896C601.961 40.536 602.942 41.0053 604.009 41.304C605.118 41.6027 606.206 41.752 607.273 41.752C607.913 41.752 608.617 41.7093 609.385 41.624C610.195 41.5387 610.963 41.3467 611.689 41.048C612.414 40.7493 613.011 40.3227 613.481 39.768C613.95 39.1707 614.185 38.3813 614.185 37.4C614.185 36.632 613.971 35.992 613.545 35.48C613.161 34.968 612.606 34.5627 611.881 34.264C611.198 33.9227 610.366 33.6667 609.385 33.496C607.465 33.0693 605.395 32.664 603.177 32.28C601.001 31.8533 599.081 31.128 597.417 30.104C596.819 29.72 596.286 29.2933 595.817 28.824C595.347 28.312 594.942 27.736 594.601 27.096C594.259 26.456 594.003 25.7733 593.833 25.048C593.662 24.3227 593.577 23.5333 593.577 22.68C593.577 20.9307 593.918 19.4373 594.601 18.2C595.326 16.9627 596.307 15.96 597.545 15.192C598.782 14.3813 600.19 13.784 601.769 13.4C603.347 13.016 605.011 12.824 606.76 12.824C609.022 12.824 611.07 13.1867 612.905 13.912C614.739 14.6373 616.254 15.704 617.449 17.112C618.643 18.52 619.347 20.2907 619.561 22.424H613.353C613.097 21.272 612.35 20.3547 611.113 19.672C609.918 18.9467 608.403 18.584 606.569 18.584C605.929 18.584 605.225 18.6267 604.457 18.712C603.731 18.7973 603.027 18.9893 602.345 19.288C601.662 19.5867 601.107 20.0133 600.681 20.568C600.254 21.08 600.041 21.7627 600.041 22.616C600.041 23.4267 600.233 24.1093 600.617 24.664C601.043 25.2187 601.641 25.6667 602.409 26.008C603.219 26.3493 604.137 26.6267 605.161 26.84C606.611 27.1813 608.169 27.5013 609.833 27.8C611.539 28.0987 612.926 28.4187 613.993 28.76C615.401 29.144 616.595 29.6987 617.577 30.424C618.601 31.1493 619.369 32.0667 619.881 33.176C620.435 34.2853 620.713 35.6293 620.713 37.208C620.713 39.256 620.307 40.9413 619.497 42.264C618.686 43.544 617.598 44.568 616.233 45.336C614.91 46.104 613.417 46.6373 611.753 46.936C610.131 47.2347 608.531 47.384 606.953 47.384Z"
    fill="white" />
</svg>